<svg xmlns="http://www.w3.org/2000/svg" xmlns:xlink="http://www.w3.org/1999/xlink" id="Layer_1" x="0" y="0" version="1.1" viewBox="0 0 450 450" xml:space="preserve" style="enable-background:new 0 0 450 450"><style type="text/css">.st0{opacity:.2}.st1{fill:#bfbeed}.st2{enable-background:new}.st3{clip-path:url(#SVGID_2_)}.st4{fill:#fe8786}.st5{clip-path:url(#SVGID_4_)}.st6{fill:#d3d3f5}.st7{fill:#3b827e}.st8{clip-path:url(#SVGID_6_);enable-background:new}.st9{fill:#ff6661}.st10{fill:#f4f4fa}.st11{fill:#46a29f}.st12{opacity:.9}.st13{fill:#fff}.st14,.st15{opacity:.9;fill:#317c76}.st15{fill:#3a2c99}.st16{fill:#ffde38}.st17,.st18{fill:#fe4340}.st18{opacity:.9}.st19,.st20{clip-path:url(#SVGID_8_);enable-background:new}.st20{clip-path:url(#SVGID_10_)}.st21{fill:#65c9c4}.st22{clip-path:url(#SVGID_12_);enable-background:new}.st23{fill:#66fcf1}.st24{fill:#e5322b}.st25{fill:#dadaf9}.st26{fill:#19121b}.st27{fill:#262028}.st28{fill:#f7736a}.st29{fill:#35353f}.st30{fill:#f9d5c3}.st31{clip-path:url(#SVGID_14_);enable-background:new}.st32{fill:#7f89a6}.st33{fill:#ffb700}.st34{fill:#ffc400}.st35,.st36{clip-path:url(#SVGID_16_);enable-background:new}.st36{clip-path:url(#SVGID_18_)}.st37{fill:#8a781e}.st38{clip-path:url(#SVGID_20_);enable-background:new}.st39{clip-path:url(#SVGID_22_)}.st40{clip-path:url(#SVGID_24_);enable-background:new}.st41{clip-path:url(#SVGID_26_)}.st42{fill:#e5e3e8}.st43{fill:#f9f7fc}.st44{fill:#448c83}.st45{fill:#f3f2fc}.st46{font-family:&apos;Inter-Regular&apos;}.st47{font-size:18.6713px}</style><g><g><g class="st0"><path d="M211.91,188.81c-0.02,6.13,4.29,13.6,9.63,16.68l139.07,80.29c5.34,3.08,9.68,0.62,9.69-5.52l0.29-102.9 l0.03-10.03c0.01-6.13-4.29-13.6-9.63-16.68l-139.07-80.3c-5.34-3.08-9.68-0.61-9.69,5.53l-0.03,10.04L211.91,188.81z" class="st1"/></g><g class="st0"><path d="M201.02,200.29c-0.02,6.13,4.29,13.6,9.63,16.68l139.07,80.29c5.34,3.08,9.68,0.62,9.69-5.52l0.29-102.9 l0.03-10.03c0.01-6.13-4.29-13.6-9.63-16.68l-139.07-80.3c-5.34-3.08-9.68-0.61-9.69,5.53l-0.03,10.04L201.02,200.29z" class="st1"/></g><g><g><g class="st2"><g class="st2"><defs><path id="SVGID_1_" d="M196.4,89.05l-2.43,1.41c1.73-1.01,4.13-0.86,6.78,0.66l2.43-1.41 C200.53,88.19,198.13,88.04,196.4,89.05z" class="st2"/></defs><use xlink:href="#SVGID_1_" style="overflow:visible;fill:#f4f4fa"/><clipPath id="SVGID_2_"><use xlink:href="#SVGID_1_" style="overflow:visible"/></clipPath><g class="st3"><path d="M200.75,91.13l2.43-1.41c-2.65-1.53-5.04-1.67-6.78-0.66l-2.43,1.41 C195.7,89.46,198.1,89.6,200.75,91.13z" class="st4"/></g></g><g class="st2"><defs><path id="SVGID_3_" d="M344.21,304.1l2.43-1.41c1.71-0.99,2.77-3.1,2.78-6.1l-2.43,1.41 C346.97,300.99,345.91,303.11,344.21,304.1z" class="st2"/></defs><use xlink:href="#SVGID_3_" style="overflow:visible;fill:#f4f4fa"/><clipPath id="SVGID_4_"><use xlink:href="#SVGID_3_" style="overflow:visible"/></clipPath><g class="st5"><path d="M344.21,304.1l2.43-1.41c1.71-0.99,2.77-3.1,2.78-6.1l-2.43,1.41 C346.97,300.99,345.91,303.11,344.21,304.1z" class="st6"/></g></g><g><polygon points="347.3 186.7 349.73 185.29 349.7 195.18 347.27 196.58" class="st7"/><polygon points="349.7 195.18 349.41 296.58 346.98 297.99 347.27 196.58" class="st6"/></g><g><polygon points="337.8 170.26 340.23 168.84 203.18 89.71 200.75 91.13" class="st7"/></g><g class="st2"><defs><path id="SVGID_5_" d="M347.3,186.7l2.43-1.41c0.02-6.04-4.23-13.41-9.49-16.44l-2.43,1.41 C343.06,173.29,347.31,180.65,347.3,186.7z" class="st2"/></defs><use xlink:href="#SVGID_5_" style="overflow:visible;fill:#3b827e"/><clipPath id="SVGID_6_"><use xlink:href="#SVGID_5_" style="overflow:visible"/></clipPath><g class="st8"><path d="M347.3,186.7l2.43-1.41c0.02-6.04-4.23-13.41-9.49-16.44l-2.43,1.41 C343.06,173.29,347.31,180.65,347.3,186.7z" class="st9"/></g></g><g><path d="M190.88,207.87c-0.02,6.04,4.23,13.4,9.49,16.44l137.06,79.13c5.26,3.04,9.54,0.61,9.55-5.44 l0.29-101.41l0.03-9.88c0.01-6.05-4.23-13.41-9.49-16.44L200.75,91.12c-5.26-3.03-9.54-0.6-9.55,5.45l-0.03,9.89 L190.88,207.87z" class="st10"/></g><path d="M191.17,106.46l156.1,90.12l0.03-9.88c0.01-6.05-4.23-13.41-9.49-16.44L200.75,91.12 c-5.26-3.03-9.54-0.6-9.55,5.45L191.17,106.46z" class="st11"/></g></g></g><g><path d="M327.45,175.25c0,1.29-0.91,1.82-2.03,1.17c-1.12-0.65-2.03-2.22-2.03-3.52c0-1.29,0.91-1.82,2.03-1.17 C326.54,172.38,327.45,173.96,327.45,175.25z" class="st10"/><path d="M333.84,178.94c0,1.29-0.91,1.82-2.03,1.17c-1.12-0.65-2.03-2.22-2.03-3.52c0-1.29,0.91-1.82,2.03-1.17 C332.93,176.07,333.84,177.65,333.84,178.94z" class="st10"/><path d="M340.23,182.63c0,1.29-0.91,1.82-2.03,1.17c-1.12-0.65-2.03-2.22-2.03-3.52c0-1.29,0.91-1.82,2.03-1.17 C339.33,179.77,340.23,181.34,340.23,182.63z" class="st10"/></g><g class="st12"><polygon points="339.73 198.9 269.39 158.29 269.39 255.83 339.73 296.44" class="st13"/><polygon points="339.73 198.9 269.39 158.29 269.39 195.15 339.73 235.76" class="st14"/><polygon points="335.91 241.52 286.9 213.22 286.9 222.57 335.91 250.86" class="st14"/><polygon points="335.91 254.5 286.9 226.2 286.9 235.54 335.91 263.84" class="st14"/><polygon points="335.91 267.47 286.9 239.18 286.9 248.52 335.91 276.82" class="st14"/><polygon points="335.91 280.45 286.9 252.16 286.9 261.5 335.91 289.79" class="st14"/><path d="M282.02,215.08c0-2.58-1.8-5.71-4.02-6.99c-2.22-1.28-4.02-0.23-4.02,2.34c0,2.58,1.8,5.71,4.02,6.99 C280.22,218.7,282.02,217.65,282.02,215.08z" class="st15"/><path d="M282.02,254.01c0-2.58-1.8-5.71-4.02-6.99c-2.22-1.28-4.02-0.23-4.02,2.34c0,2.58,1.8,5.71,4.02,6.99 C280.22,257.64,282.02,256.59,282.02,254.01z" class="st15"/><path d="M282.02,241.03c0-2.58-1.8-5.71-4.02-6.99c-2.22-1.28-4.02-0.23-4.02,2.34c0,2.58,1.8,5.71,4.02,6.99 C280.22,244.66,282.02,243.61,282.02,241.03z" class="st15"/><path d="M282.02,228.05c0-2.58-1.8-5.71-4.02-6.99c-2.22-1.28-4.02-0.23-4.02,2.34c0,2.58,1.8,5.71,4.02,6.99 C280.22,231.68,282.02,230.63,282.02,228.05z" class="st15"/><g><polygon points="263.25 198.56 195.51 159.45 195.51 114.27 263.25 153.38" class="st13"/><g><path d="M227.43,158.49l-26.61-15.36c-0.83-0.48-1.5-1.65-1.5-2.61l0-17.29c0-0.96,0.67-1.35,1.5-0.87 l26.61,15.36c0.83,0.48,1.5,1.65,1.5,2.61l0,17.29C228.93,158.58,228.26,158.97,227.43,158.49z" class="st14"/><polygon points="226.89 149.13 201.02 134.2 201.02 130.47 226.89 145.4" class="st16"/><polygon points="226.89 141.01 222.16 138.28 222.16 136.42 226.89 139.15" class="st16"/><polygon points="205.89 143.25 201.02 140.44 201.02 138.58 205.89 141.39" class="st16"/></g><g class="st12"><path d="M245.52,153.84c0.88,0.15,2.1,0.87,3.27,1.57c1.1,0.66,1.89,1.85,1.89,3.23v0.45 c0,0.84-0.23,1.3-0.84,1.2c0.63,0.6,0.84,1.39,0.84,2.27v0.34c0,1.4-0.74,1.75-1.96,1.05c-1.14-0.66-2.27-1.27-3.14-2.14 l0.01-1.7l2.18,1.26c0.78,0.45,0.98,0.55,0.98,0.01v-0.1c0-0.53-0.28-0.72-0.92-1.12l-1.63-1.02v-1.83l1.63,0.82 c0.69,0.36,0.94,0.51,0.94-0.03v-0.1c0-0.59-0.42-0.83-0.94-1.13l-2.3-1.33V153.84z" class="st17"/><path d="M251.26,156.85l4.8,2.77l0.47,1.17l-2.28,6.25l-2.06-1.19l1.98-5.32l-2.9-1.68V156.85z" class="st17"/></g><g><path d="M209.39,157.37c0-3.23-2.26-7.15-5.04-8.75c-2.78-1.61-5.04-0.29-5.04,2.94c0,3.23,2.26,7.15,5.04,8.75 C207.14,161.92,209.39,160.6,209.39,157.37z" class="st1"/><path d="M226.07,167c0-3.23-2.26-7.15-5.04-8.75c-2.78-1.61-5.04-0.29-5.04,2.94c0,3.23,2.26,7.15,5.04,8.75 C223.82,171.55,226.07,170.23,226.07,167z" class="st1"/><path d="M242.76,176.64c0-3.23-2.26-7.15-5.04-8.75c-2.78-1.61-5.04-0.29-5.04,2.94c0,3.23,2.26,7.15,5.04,8.75 C240.5,181.18,242.76,179.86,242.76,176.64z" class="st1"/><path d="M259.44,186.27c0-3.23-2.26-7.15-5.04-8.75c-2.78-1.61-5.04-0.29-5.04,2.94c0,3.23,2.26,7.15,5.04,8.75 C257.18,190.81,259.44,189.49,259.44,186.27z" class="st1"/></g></g><g><polygon points="263.25 250.92 195.51 211.81 195.51 166.63 263.25 205.74" class="st13"/><g><path d="M227.43,210.86l-26.61-15.36c-0.83-0.48-1.5-1.65-1.5-2.61l0-17.29c0-0.96,0.67-1.35,1.5-0.87 l26.61,15.36c0.83,0.48,1.5,1.65,1.5,2.61l0,17.29C228.93,210.94,228.26,211.34,227.43,210.86z" class="st18"/><polygon points="226.89 201.5 201.02 186.56 201.02 182.84 226.89 197.77" class="st16"/><polygon points="226.89 193.38 222.16 190.65 222.16 188.78 226.89 191.51" class="st16"/><polygon points="205.9 195.62 201.02 192.81 201.02 190.94 205.9 193.76" class="st16"/></g><g class="st12"><path d="M235.61,205.82c0-1.46,0.79-1.5,1.76-0.99v-0.87l0.94,0.54v0.87c0.64,0.4,1,0.72,1.47,1.18v1.53 c-0.56-0.39-1.26-0.83-1.83-1.16c-0.47-0.27-0.65-0.35-0.65,0.07v0.11c0,0.31,0.05,0.51,0.52,0.79l0.56,0.32 c1.33,0.77,1.63,2.28,1.63,3.09v0.33c0,1.83-0.86,1.75-1.7,1.28v0.83l-0.94-0.54v-0.83c-0.77-0.45-0.88-0.59-1.56-1.24v-1.53 c0.35,0.24,1.19,0.8,2,1.26c0.38,0.22,0.51,0.19,0.51-0.12v-0.16c0-0.29-0.08-0.49-0.46-0.71l-0.52-0.3 c-1.66-0.96-1.73-2.67-1.73-3.14V205.82z" class="st17"/><path d="M240.43,206.92c0.77,0.13,1.84,0.76,2.86,1.37c0.96,0.57,1.65,1.62,1.65,2.82v0.39 c0,0.74-0.2,1.14-0.73,1.05c0.55,0.52,0.73,1.21,0.73,1.98l0,0.29c0,1.22-0.65,1.53-1.71,0.92c-0.99-0.57-1.98-1.11-2.75-1.87 l0.01-1.48l1.9,1.1c0.68,0.39,0.85,0.48,0.85,0.01v-0.09c0-0.46-0.24-0.63-0.8-0.98l-1.42-0.89v-1.6l1.42,0.72 c0.6,0.32,0.82,0.44,0.82-0.02v-0.09c0-0.52-0.37-0.73-0.82-0.99l-2.01-1.16V206.92z" class="st17"/><path d="M245.67,215.32l2.3,1.33c0.54,0.31,0.51-0.04,0.51-0.24v-0.31c0-0.33-0.09-0.59-0.42-0.78l-0.38-0.22 c-0.28-0.16-0.38-0.08-0.38,0.23l-1.62-0.94l0.19-4.59l4.04,2.33v1.76l-2.39-1.38l-0.03,1.01c0.23-0.03,0.45,0.07,0.57,0.12 c0.23,0.11,0.55,0.31,0.66,0.38c1.01,0.68,1.46,1.76,1.46,2.83v0.95c0,1.39-0.92,1.39-1.77,0.9c-1.08-0.62-1.57-0.92-2.74-1.82 V215.32z" class="st17"/><path d="M250.8,214.69c0-1.32,0.6-1.7,1.69-1.07l1.43,0.83c1.26,0.73,1.61,1.82,1.61,2.87v3.52 c0,1.2-0.57,1.61-1.62,1.01l-1.43-0.83c-1.13-0.65-1.68-1.7-1.68-2.91V214.69z M252.99,219.55l0.37,0.21 c0.29,0.17,0.49,0.24,0.49-0.3v-2.71c0-0.46-0.18-0.69-0.42-0.83l-0.5-0.29c-0.45-0.26-0.44,0.2-0.44,0.33v2.7 C252.49,219.23,252.79,219.44,252.99,219.55z" class="st17"/></g><g><path d="M235.26,197.32l1.82,1.05v0.65l-0.61-0.35v2.07l-0.62-0.36v-2.07l-0.59-0.34V197.32z" class="st1"/><path d="M237.51,199.34c0.59,0.34,0.8,0.71,0.8,1.49c0,0.73-0.19,0.87-0.8,0.52c-0.6-0.35-0.8-0.73-0.8-1.44 C236.72,199.11,236.92,199,237.51,199.34z M237.51,200.82c0.18,0.1,0.18,0.07,0.18-0.34c0-0.43,0-0.5-0.18-0.6 c-0.19-0.11-0.18-0.03-0.18,0.4C237.34,200.66,237.35,200.72,237.51,200.82z" class="st1"/><path d="M238.43,200.03l0.24,0l0.09-0.5l0.53,0.31v0.55l0.29,0.16v0.5l-0.29-0.16v0.62c0,0.26,0.04,0.34,0.12,0.43 c0,0,0.13,0.16,0.16,0.17v0.42l-0.48-0.28c-0.26-0.15-0.41-0.42-0.41-0.95v-0.77l-0.24-0.14V200.03z" class="st1"/><path d="M239.7,201.91c0-0.28,0.11-0.51,0.56-0.26c0,0,0.33,0.19,0.33,0.19c0,0,0-0.02,0-0.03 c0-0.2-0.07-0.23-0.2-0.31c-0.08-0.05-0.63-0.32-0.63-0.32v-0.42c0.22,0.01,0.41,0.09,0.73,0.27c0.45,0.26,0.72,0.54,0.72,1.1 v1.32l-0.5-0.29l-0.12-0.27c-0.03,0.06-0.13,0.16-0.36,0.02c-0.4-0.25-0.52-0.65-0.52-0.86V201.91z M240.45,202.52 c0.13,0.08,0.13-0.05,0.13-0.05v-0.22l-0.17-0.08c-0.1-0.05-0.1,0.05-0.1,0.11C240.32,202.44,240.39,202.48,240.45,202.52z" class="st1"/><path d="M241.4,200.67l0.62,0.36v2.06c0,0.26,0.05,0.34,0.12,0.42c0,0,0.13,0.15,0.16,0.17v0.42l-0.44-0.26 c-0.3-0.18-0.45-0.44-0.45-0.96V200.67z" class="st1"/><path d="M243.27,201.94l1.02,0.59c0.5,0.29,0.7,0.69,0.7,1.15c0,0.23-0.11,0.48-0.34,0.37 c0.24,0.18,0.4,0.53,0.4,0.81c0,0.61-0.25,0.68-0.75,0.4l-1.03-0.6V201.94z M244.24,203.51c0.1,0.06,0.14,0,0.14-0.11 c0-0.16-0.07-0.25-0.14-0.3l-0.35-0.2v0.4L244.24,203.51z M244.27,204.63c0.12,0.07,0.16-0.01,0.16-0.17 c0-0.14-0.03-0.29-0.16-0.36l-0.38-0.22v0.53L244.27,204.63z" class="st1"/><path d="M245.15,205.06c0-0.28,0.11-0.51,0.56-0.26c0,0,0.33,0.19,0.33,0.19v-0.03c0-0.2-0.07-0.23-0.2-0.31 c-0.08-0.05-0.63-0.32-0.63-0.32v-0.42c0.22,0.01,0.41,0.09,0.73,0.27c0.45,0.26,0.72,0.54,0.72,1.1v1.32l-0.5-0.29l-0.12-0.27 c-0.03,0.06-0.12,0.16-0.36,0.02c-0.4-0.25-0.53-0.65-0.53-0.86V205.06z M245.91,205.67c0.13,0.08,0.13-0.05,0.13-0.05v-0.22 l-0.17-0.08c-0.1-0.05-0.1,0.05-0.1,0.11v0.02C245.78,205.61,245.85,205.63,245.91,205.67z" class="st1"/><path d="M246.85,203.82l0.62,0.36v2.06c0,0.26,0.05,0.34,0.12,0.42c0,0,0.13,0.15,0.16,0.17v0.42l-0.44-0.25 c-0.3-0.18-0.45-0.44-0.45-0.96V203.82z" class="st1"/><path d="M247.86,206.62c0-0.28,0.11-0.52,0.56-0.26c0,0,0.33,0.19,0.33,0.19v-0.03c0-0.2-0.07-0.23-0.2-0.31 c-0.08-0.05-0.63-0.32-0.63-0.32v-0.42c0.22,0,0.41,0.09,0.73,0.27c0.45,0.26,0.72,0.54,0.72,1.1v1.32l-0.5-0.29l-0.12-0.27 c-0.03,0.06-0.12,0.16-0.36,0.02c-0.4-0.25-0.52-0.65-0.52-0.85V206.62z M248.61,207.23c0.13,0.08,0.13-0.05,0.13-0.05v-0.22 l-0.17-0.08c-0.1-0.05-0.1,0.05-0.1,0.11v0.02C248.48,207.17,248.55,207.19,248.61,207.23z" class="st1"/><path d="M249.55,206.32l0.52,0.3l0.1,0.25c0.11-0.05,0.21-0.11,0.47,0.04c0.44,0.25,0.49,0.61,0.49,1.03v1.26 l-0.62-0.36v-1.28c0-0.16-0.04-0.21-0.11-0.25c-0.12-0.07-0.2-0.08-0.23,0v1.33l-0.62-0.36V206.32z" class="st1"/><path d="M251.87,207.63c0.17,0.1,0.5,0.27,0.83,0.61v0.42c0,0-0.19-0.13-0.48-0.3c-0.22-0.13-0.29-0.18-0.29,0.31 c0,0.45,0.06,0.5,0.29,0.63c0.29,0.17,0.5,0.26,0.5,0.26v0.42c-0.24,0.06-0.58-0.2-0.85-0.35c-0.32-0.18-0.56-0.56-0.56-1.33 C251.31,207.54,251.54,207.45,251.87,207.63z" class="st1"/><path d="M253.56,208.61c0.57,0.33,0.78,0.53,0.78,1.18c0,0.4-0.2,0.41-0.5,0.24l-0.4-0.23 c0,0.27,0.15,0.3,0.39,0.44c0.23,0.13,0.24,0.14,0.48,0.24v0.47c-0.22-0.01-0.66-0.28-0.93-0.43 c-0.43-0.25-0.56-0.65-0.56-1.34C252.81,208.35,253.01,208.29,253.56,208.61z M253.62,209.45c0.05,0.03,0.09,0.01,0.09-0.07 c0-0.13,0-0.19-0.11-0.25c-0.13-0.08-0.17-0.07-0.17,0.21L253.62,209.45z" class="st1"/></g><g><path d="M209.39,209.74c0-3.23-2.26-7.15-5.04-8.75c-2.78-1.61-5.04-0.29-5.04,2.94c0,3.23,2.26,7.15,5.04,8.75 C207.14,214.29,209.39,212.97,209.39,209.74z" class="st1"/><path d="M226.07,219.37c0-3.23-2.26-7.15-5.04-8.75c-2.78-1.61-5.04-0.29-5.04,2.94c0,3.23,2.26,7.15,5.04,8.75 C223.82,223.92,226.07,222.6,226.07,219.37z" class="st1"/><path d="M242.76,229c0-3.23-2.26-7.15-5.04-8.75c-2.78-1.61-5.04-0.29-5.04,2.94c0,3.23,2.26,7.15,5.04,8.75 C240.5,233.55,242.76,232.23,242.76,229z" class="st1"/><path d="M259.44,238.63c0-3.23-2.26-7.15-5.04-8.75c-2.78-1.61-5.04-0.29-5.04,2.94c0,3.23,2.26,7.15,5.04,8.76 C257.18,243.18,259.44,241.86,259.44,238.63z" class="st1"/></g></g></g></g><g><g><g class="st2"><g class="st2"><defs><path id="SVGID_7_" d="M131.84,159.29l37.36-21.71c0.91-0.53,2.18-0.45,3.57,0.35l-37.36,21.71 C134.01,158.84,132.75,158.76,131.84,159.29z" class="st2"/></defs><use xlink:href="#SVGID_7_" style="overflow:visible;fill:#fe4340"/><clipPath id="SVGID_8_"><use xlink:href="#SVGID_7_" style="overflow:visible"/></clipPath><g class="st19"><path d="M131.84,159.29l37.36-21.71c0.9-0.52,2.14-0.46,3.51,0.31l-37.36,21.71 C133.97,158.84,132.74,158.77,131.84,159.29z" class="st17"/><path d="M135.34,159.61l37.36-21.71c0.02,0.01,0.04,0.03,0.07,0.04l-37.36,21.71 C135.39,159.63,135.37,159.62,135.34,159.61z" class="st17"/></g></g><g class="st2"><defs><path id="SVGID_9_" d="M275.4,307.16l-37.36,21.71c6.95-4.04,11.28-12.6,11.31-24.74l37.36-21.71 C286.68,294.55,282.36,303.12,275.4,307.16z" class="st2"/></defs><use xlink:href="#SVGID_9_" style="overflow:visible;fill:#e5322b"/><clipPath id="SVGID_10_"><use xlink:href="#SVGID_9_" style="overflow:visible"/></clipPath><g class="st20"><path d="M249.36,304.12l37.36-21.71c-0.03,12.14-4.36,20.7-11.31,24.74l-37.36,21.71 C245,324.82,249.33,316.26,249.36,304.12z" class="st11"/></g></g><g><polygon points="249.57 231.33 286.92 209.62 286.72 282.42 249.36 304.12" class="st11"/></g><g><polygon points="135.41 159.65 172.77 137.94 281.92 200.96 244.57 222.67" class="st21"/></g><g class="st2"><defs><path id="SVGID_11_" d="M244.57,222.67l37.36-21.71c2.77,1.6,5.01,5.48,5,8.67l-37.36,21.71 C249.58,228.14,247.34,224.27,244.57,222.67z" class="st2"/></defs><use xlink:href="#SVGID_11_" style="overflow:visible;fill:#65c9c4"/><clipPath id="SVGID_12_"><use xlink:href="#SVGID_11_" style="overflow:visible"/></clipPath><g class="st22"><path d="M244.57,222.67l37.36-21.71c0.6,0.35,1.17,0.8,1.71,1.33l-37.35,21.71 C245.74,223.46,245.17,223.01,244.57,222.67z" class="st17"/><path d="M246.27,223.99l37.35-21.71c1.93,1.92,3.3,4.84,3.3,7.34l-37.36,21.71 C249.58,228.83,248.2,225.91,246.27,223.99z" class="st11"/></g></g><g><path d="M244.57,222.67c2.77,1.6,5.01,5.48,5,8.67l-0.21,72.79c-0.07,24.43-17.53,34.38-38.79,22.11l-41.86-24.17 c-21.26-12.28-38.61-42.32-38.54-66.76l0.21-72.79c0.01-3.19,2.26-4.47,5.04-2.87L244.57,222.67z" class="st23"/></g></g></g><path d="M169.65,158.6c-4.69,2.71-12.35,2.71-17.04,0c-4.69-2.71-4.69-7.13,0-9.84c4.69-2.71,12.35-2.71,17.04,0 C174.34,151.46,174.34,155.89,169.65,158.6z" class="st24"/><path d="M261.1,211.13c-4.69,2.71-12.35,2.71-17.04,0c-4.69-2.71-4.69-7.13,0-9.84c4.69-2.71,12.35-2.71,17.04,0 C265.79,203.99,265.79,208.42,261.1,211.13z" class="st21"/><g><path d="M150.04,106.69l0.17,46.38c0.01,1.61,1.07,3.22,3.18,4.44c4.23,2.45,11.07,2.42,15.28-0.06 c2.11-1.24,3.16-2.87,3.15-4.49l-0.18-46.36c-0.03-8.09,2.24-14.06,6.23-16.39c3.99-2.32,10.31-1.35,17.33,2.67l11.94,6.83 c18.7,10.7,34.56,37.95,34.64,59.49l0.17,46.38c0.01,1.61,1.07,3.22,3.19,4.44c2.71,1.57,6.5,2.12,9.98,1.66 c1.94-0.26,3.79-0.83,5.3-1.72c0.57-0.34,1.06-0.69,1.47-1.08c1.13-1.04,1.69-2.23,1.67-3.41l-0.17-46.37 c-0.05-14.1-4.78-29.93-13.32-44.59c-8.53-14.65-19.97-26.58-32.21-33.58l-11.94-6.83c-6.74-3.86-13.46-6.09-19.96-6.63 c-6.89-0.57-13.46,0.83-18.99,4.05c-5.53,3.22-9.98,8.24-12.89,14.51C151.39,91.97,150.02,98.91,150.04,106.69z" class="st25"/><path d="M171.93,92.76c1.22-0.71,2.65-1.11,4.25-1.21c-2.92,2.89-4.55,8.21-4.52,15.05l0.17,46.36 c0.01,1.62-1.03,3.24-3.15,4.49c-0.84,0.5-1.79,0.89-2.81,1.19l-0.19-49.49C165.66,101.06,167.93,95.09,171.93,92.76z" class="st1"/><path d="M165.56,74.28c3.77-1.07,7.82-1.44,11.99-1.1c6.5,0.54,13.21,2.77,19.96,6.63l11.94,6.83 c12.24,7,23.67,18.93,32.21,33.59c8.53,14.65,13.26,30.49,13.31,44.59l0.18,46.88c1.94-0.26,3.79-0.83,5.3-1.72 c0.57-0.34,1.06-0.69,1.47-1.08l-0.18-46.91c-0.05-14.1-4.78-29.93-13.31-44.59c-8.54-14.65-19.98-26.58-32.21-33.58l-11.94-6.83 c-6.74-3.86-13.46-6.09-19.96-6.63C177.52,69.79,171.04,71.15,165.56,74.28z" class="st10"/></g><path d="M175.47,237.83c-0.02-6.21,4.32-8.74,9.71-5.66c5.39,3.08,9.77,10.62,9.8,16.82 c0.01,4.09-1.87,6.57-4.7,6.91l0.07,17.67l-10.03-5.74l-0.07-17.67C177.4,246.58,175.49,241.92,175.47,237.83z" class="st26"/></g><g><g><g id="man_6_"><g id="man_8_"><g><g><g><path d="M110.31,370.87c0.41-0.93,3.77-1.83,4.75-2.15c2.51-0.83,5.07-1,7.65-1.47 c0.52-0.1,1.07-0.18,1.57-0.02c1.28,0.4,1.77,2.62,1.48,3.73c-0.21,0.79-0.81,1.41-1.5,1.85c-1.03,0.65-2.43,1.13-3.65,1.18 c-1.3,0.06-2.52,0.34-3.64,1.05c-1.45,0.91-2.51,1.92-4.3,1.87c-1.79-0.05-3.16-1.29-3.04-3.13 c0.04-0.66,0.23-1.31,0.41-1.94C110.15,371.41,110.2,371.1,110.31,370.87z" class="st26"/><path d="M104.4,370.86c0.08-0.12,0.16-0.23,0.23-0.36c0.76-1.25,1.92-1.93,3.13-2.73 c0.45-0.3,0.93-0.61,1.47-0.64c1.23-0.08,2.09,1.35,1.98,2.57c-0.05,0.57-0.24,1.11-0.33,1.68 c-0.16,1.07-0.03,2.57,0.9,3.29c1.25,0.96,3,1.53,4.36,2.36c0.53,0.32,1.07,0.67,1.41,1.2c0.8,1.23-0.14,3.25-1.23,3.97 c-0.68,0.45-1.55,0.51-2.35,0.37c-1.2-0.2-2.56-0.78-3.51-1.55c-1.01-0.83-2.11-1.43-3.41-1.65 c-2.24-0.38-4.99-0.61-5.6-3.34c-0.17-0.73,0.05-1.5,0.42-2.15C102.53,372.72,103.63,371.93,104.4,370.86z" class="st27"/></g></g></g></g><path d="M112.61,314.09c0.99,1,4.72-0.84,4.77-1.33c4.43-3.44,3.91,10.29,2.63,15.74c-0.68,2.94-0.5,6-0.91,8.99 c-0.45,3.33-1.16,6.62-2.1,9.85c-0.2,0.7-0.43,1.42-0.93,1.94c-1.03,1.09-2.76,0.99-4.24,0.74c-1.28-0.21-2.71-0.57-3.34-1.7 c-0.39-0.7-0.38-1.54-0.37-2.34c0.01-2.11,0.03-4.28-0.39-6.35c-0.45-2.21-0.9-4.41-1.34-6.62c-0.39-1.93-0.78-3.87-0.98-5.83 c-0.35-3.54-0.05-7.12,0.49-10.63c0.29-1.84-0.33-5.29,2.29-5.67C110.55,310.55,111.95,313.42,112.61,314.09z" class="st26"/><path d="M117.89,341.44l0.73-3.08C118.33,339.37,118.09,340.4,117.89,341.44z" class="st28"/><path d="M116.47,346.17c-0.76-1.05-2.64-1-3.27-0.72c-0.49,0.22-4.09-1.85-5.15-2.64 c0.08,0.06-0.06,0.93-0.07,1.06c-0.02,0.36-0.05,0.73-0.06,1.1c-0.04,0.72-0.07,1.44-0.1,2.17c-0.05,1.41-0.08,2.83-0.07,4.24 c0.01,1.44,0.06,2.88,0.14,4.32c0.08,1.29,0.3,2.58,0.19,3.86c-0.05,0.65,0.12,1.36,0.2,2.01c0.09,0.73,0.18,1.46,0.27,2.2 c0.18,1.46,0.37,2.93,0.55,4.39c0.03,0.21,0.05,0.41,0.08,0.61c0.14,1.12,0.19,2.93,1.05,3.76c0.88,0.86,2.37,1.17,3.55,0.96 c1-0.18,1.92-0.72,2.57-1.5c0.74-0.88,0.64-2.2,0.65-3.3c0.03-4.62-0.29-9.24-0.29-13.86c0-3.56,0.19-7.15,0.86-10.64 L116.47,346.17z" class="st26"/><path d="M119.45,315.05c0.42-0.22,2.6-1.31,2.59-1.9c-0.01-0.4,1.06-0.73,1.34-0.72c0.5,0.01,1,0.33,1.41,0.62 c0.99,0.71,1.73,1.8,2.18,2.97c0.62,1.6,0.77,3.37,0.87,5.1c0.29,5.16,0.15,10.35-0.39,15.5c-0.28,2.6-0.66,5.18-1.15,7.74 c-0.24,1.28-0.51,2.56-0.81,3.82c-0.28,1.22-0.54,1.6-1.56,2.24c-2.2,1.38-6.15,1.2-7.72-1.29c-1.69-2.67-0.99-6.84-1.53-9.85 c-0.78-4.37-3.69-7.58-5.03-11.73c-0.98-3.05-0.85-5.92-0.33-9.03c0.24-1.47,0.7-4.98,2.19-5.84c0.4-0.23,3.09-0.84,5.27,1.32 C118.04,315.26,117.89,315.86,119.45,315.05z" class="st27"/><g><g><g><g><g><g><path d="M104.69,300.22c-0.02-0.76-0.07-1.52-0.21-2.31c-0.64-3.67-1.74-7.25-2.2-10.95 c-0.36-2.87-0.62-6.45,1.66-8.67c0.37-0.36,0.8-0.66,1.25-0.92c4.43-2.5,8.66,0.54,12.81,2.04 c2.73,0.98,5.34,2.27,7.78,3.83c0.85,0.54,1.72,0.92,2.29,1.76c0.71,1.06,0.63,1.82,0.52,3.02 c-0.13,1.4-0.25,2.81-0.35,4.21c-0.2,2.81-0.35,5.63-0.43,8.45c-0.17,5.64-0.11,11.28,0.18,16.91 c0.09,1.78,0.32,3.57,0.34,5.35c0.02,1.27-0.84,1.87-2.03,2.18c-3.34,0.88-7.21,1.16-10.65,1.09 c-3.58-0.07-7.22-0.85-10.22-2.79c-0.77-0.5-0.39-1.29-0.33-2.12c0.08-1.01,0.15-2.01,0.19-3.02 c0.08-1.96,0.09-3.92,0.01-5.89c-0.06-1.48-0.4-2.9-0.47-4.34c-0.08-1.74-0.03-3.49-0.1-5.23 C104.7,301.94,104.72,301.08,104.69,300.22z" class="st29"/></g></g></g></g></g></g><path d="M123.29,352.18c-1.21,1.9-2.4,3.8-3.57,5.72c-0.93,1.52-1.85,3.04-2.75,4.57 c-0.69,1.18-1.38,2.36-2.05,3.55c-0.87,1.53-1.73,3.07-2.62,4.57c-0.66,1.12-1.16,2.72-2.46,3.28c-1.15,0.49-2.88-0.31-3.8-0.96 c-0.72-0.51-2.09-1.5-2.41-2.35c-0.33-0.86,0.18-2.17,0.47-2.98c0.77-2.13,1.75-4.18,2.77-6.2c1.71-3.4,3.53-6.75,5.45-10.04 c1.83-3.14,3.29-6.39,4.95-9.62c0.18-0.35,0.6-0.61,0.98-0.64c0.49-0.05,6.54,7.06,6.85,8.28 C125.07,349.35,124.78,349.84,123.29,352.18z" class="st27"/><path d="M119.11,275.82c0.16-1.1,0.99-0.84,0.57-1.84c-0.36-0.84-0.9-1.62-1.62-2.18 c-0.72-0.56-1.64-0.89-2.55-0.84c-0.32,0.02-0.53,0.2-0.84,0.2c-0.86,0-1.73-0.16-2.59-0.04c-0.86,0.12-1.65,0.19-1.65,1.15 c0,1.29,0.06,2.53-0.35,3.8c-0.22,0.68-0.55,1.33-0.61,2.04c-0.12,1.4,0.9,2.7,2.17,3.31c1.55,0.75,3.3,0.68,4.95,0.44 c0.83-0.12,1.99-0.29,2.48-1.07c0.37-0.59,0.21-1.37,0.13-2.02C119.07,277.78,118.97,276.81,119.11,275.82z" class="st30"/><g><g><g class="st2"><g class="st2"><defs><path id="SVGID_13_" d="M117.25,259.33l-3.6,2.09c0.26-0.15,0.61-0.13,0.99,0.1l3.59-2.09 C117.86,259.2,117.51,259.18,117.25,259.33z" class="st2"/></defs><clipPath id="SVGID_14_"><use xlink:href="#SVGID_13_" style="overflow:visible"/></clipPath><g class="st31"><path d="M114.65,261.51l3.59-2.09c-0.39-0.22-0.74-0.24-0.99-0.1l-3.6,2.09 C113.91,261.27,114.26,261.29,114.65,261.51z" class="st32"/></g></g></g></g><g><g><path d="M122.82,261.79c0.52,0.63,0.93,1.35,1.05,2.19c0.28,1.87-0.47,3.78-0.07,5.63 c0.39,1.79-0.38,5.86-3.91,6.91c-1.79,0.53-5.32-0.09-6.45-0.63c-1.52-0.73-2.53-2.21-3.43-3.64 C102.62,260.52,117.81,255.7,122.82,261.79z" class="st30"/></g></g><path d="M106.68,266.99c0.23,1.92,0.65,3.81,0.83,5.73c0.31,3.24-0.04,6.61,1.11,9.65 c0.67,1.77,1.85,3.34,3.35,4.5c0,0.15,1.27,1.18,1.41,1.31c0.66,0.6,1.31,1.21,1.97,1.81c0.17,0.16,0.37,0.33,0.61,0.33 c0.24,0,0.45-0.18,0.62-0.36c1.73-1.76,2.97-3.97,3.88-6.27c0-0.12,0.12-0.32,0.17-0.44c0.05-0.15,0.11-0.29,0.16-0.44 c0.11-0.3,0.21-0.6,0.31-0.91c0.51-1.56,0.92-3.16,1.31-4.75c0.4-1.63,0.9-3.25,1.35-4.87c0.12-0.42,0.24-0.84,0.28-1.28 c0.02-0.24,0.02-0.49-0.02-0.73c-0.02-0.12-0.05-0.24-0.09-0.35c-0.03-0.07-0.09-0.16-0.06-0.23 c-0.41,0.25-0.81,0.52-1.21,0.79c-0.74,0.49-1.84,0.37-2.45-0.28c-1.64-1.73,0.58-3.6,2.28-3.76c0.58-0.05,1.23-0.03,1.65-0.43 c0.31-0.29,0.41-0.75,0.46-1.17c0.32-2.77-0.53-5.1-2.56-6.97c-0.64-0.59-1.34-1.12-2.14-1.46c-0.7-0.3-1.46-0.45-2.21-0.56 c-4.11-0.58-8.94,0.72-10.53,4.99c-0.7,1.87-0.71,3.93-0.49,5.92C106.67,266.85,106.68,266.92,106.68,266.99z" class="st29"/></g></g></g><path d="M122.99,281.61c-1.51,0.59-2.88,1.36-3.38,2.95c-0.47,1.47-0.51,2.97,0.27,4.35 c0.81,1.44,2.38,2.42,4.03,2.53c1.54,0.1,3.02-0.52,4.44-1.12c3.98-1.69,7.97-3.1,11.62-5.46c1.52-0.99,3.06-2.29,3.4-4.07 c0.23-1.21-0.17-2.51-1.03-3.39c-2.09-2.12-3.88-0.71-4.23-0.59C126.94,280.53,122.74,281.7,122.99,281.61z" class="st29"/><g><g><g class="st2"><g><polygon points="174.28 245.52 178.04 243.34 178 255.73 174.25 257.91" class="st33"/></g><g><polygon points="170.97 243.61 174.72 241.43 178.04 243.34 174.28 245.52" class="st16"/></g><g><polygon points="174.28 245.52 174.25 257.91 170.93 256 170.97 243.61" class="st34"/></g></g></g><g><g class="st2"><g><polygon points="168.54 252.81 172.29 250.63 172.26 263.02 168.51 265.2" class="st33"/></g><g><polygon points="165.23 250.89 168.98 248.71 172.29 250.63 168.54 252.81" class="st16"/></g><g><polygon points="168.54 252.81 168.51 265.2 165.19 263.28 165.23 250.89" class="st34"/></g></g></g><g><g class="st2"><g class="st2"><defs><path id="SVGID_15_" d="M176.31,243.15l-72.69,42.24c0.6-0.35,1.42-0.3,2.33,0.23l72.69-42.24 C177.73,242.85,176.9,242.8,176.31,243.15z" class="st2"/></defs><use xlink:href="#SVGID_15_" style="overflow:visible;fill:#ffc400"/><clipPath id="SVGID_16_"><use xlink:href="#SVGID_15_" style="overflow:visible"/></clipPath><g class="st35"><path d="M105.94,285.62l72.69-42.24c-0.01,0-0.01-0.01-0.02-0.01l-72.69,42.24 C105.93,285.61,105.94,285.62,105.94,285.62z" class="st34"/><path d="M105.93,285.61l72.69-42.24c-0.9-0.52-1.72-0.56-2.31-0.22l-72.69,42.24 C104.21,285.05,105.03,285.09,105.93,285.61z" class="st34"/></g></g><g class="st2"><defs><path id="SVGID_17_" d="M108.25,293.37l72.69-42.24c0.59-0.34,0.95-1.07,0.95-2.1c0.01-2.08-1.45-4.61-3.26-5.66 l-72.69,42.24c1.81,1.04,3.27,3.58,3.26,5.65C109.21,292.3,108.84,293.03,108.25,293.37z" class="st2"/></defs><use xlink:href="#SVGID_17_" style="overflow:visible;fill:#ffb700"/><clipPath id="SVGID_18_"><use xlink:href="#SVGID_17_" style="overflow:visible"/></clipPath><g class="st36"><path d="M108.25,293.37l72.69-42.24c0.35-0.2,0.61-0.54,0.78-0.99l-72.69,42.24 C108.87,292.83,108.6,293.17,108.25,293.37z" class="st33"/><path d="M109.03,292.38l72.69-42.24c0.11-0.31,0.18-0.69,0.18-1.11c0-0.02,0-0.04,0-0.06l-72.69,42.24 c0,0.02,0,0.04,0,0.06C109.21,291.7,109.14,292.07,109.03,292.38z" class="st33"/><path d="M109.21,291.21l72.69-42.24c-0.01-0.52-0.1-1.08-0.28-1.62l-72.69,42.24 C109.11,290.14,109.2,290.69,109.21,291.21z" class="st33"/><path d="M108.93,289.59l72.69-42.24c-0.22-0.7-0.56-1.39-0.98-2.01l-72.69,42.24 C108.38,288.2,108.72,288.89,108.93,289.59z" class="st34"/><path d="M107.96,287.58l72.69-42.24c-0.28-0.41-0.59-0.79-0.93-1.13l-72.69,42.24 C107.36,286.79,107.68,287.17,107.96,287.58z" class="st16"/><path d="M107.02,286.45l72.69-42.24c-0.34-0.33-0.7-0.62-1.08-0.83l-72.69,42.24 C106.32,285.84,106.69,286.12,107.02,286.45z" class="st16"/></g></g><g><path d="M105.94,285.62c-1.81-1.04-3.28-0.2-3.28,1.87c-0.01,2.07,1.46,4.61,3.26,5.65 c1.81,1.04,3.28,0.21,3.29-1.87C109.21,289.19,107.75,286.66,105.94,285.62z" class="st37"/></g></g></g><g><g class="st2"><g class="st2"><defs><path id="SVGID_19_" d="M94.98,304.92l-6.4-3.72c0.66,0.38,1.07,1.2,1.07,2.36c0.01,2.34-1.64,5.18-3.67,6.36 l6.4,3.72c2.03-1.17,3.68-4.02,3.67-6.36C96.05,306.12,95.64,305.3,94.98,304.92z" class="st2"/></defs><use xlink:href="#SVGID_19_" style="overflow:visible;fill:#ffde38"/><clipPath id="SVGID_20_"><use xlink:href="#SVGID_19_" style="overflow:visible"/></clipPath><g class="st38"><path d="M94.98,304.92l-6.4-3.72c0.66,0.38,1.07,1.2,1.07,2.36c0.01,1.83-1,3.98-2.42,5.39l6.4,3.72 c1.42-1.41,2.43-3.55,2.42-5.39C96.05,306.12,95.64,305.3,94.98,304.92z" class="st16"/><path d="M93.63,312.66l-6.4-3.72c-0.39,0.39-0.81,0.72-1.25,0.97l6.4,3.72 C92.82,313.38,93.24,313.05,93.63,312.66z" class="st34"/></g></g><g class="st2"><defs><path id="SVGID_21_" d="M83.36,310.17l6.4,3.72c0.67,0.39,1.6,0.33,2.62-0.26l-6.4-3.72 C84.96,310.51,84.03,310.56,83.36,310.17z" class="st2"/></defs><use xlink:href="#SVGID_21_" style="overflow:visible;fill:#ffde38"/><clipPath id="SVGID_22_"><use xlink:href="#SVGID_21_" style="overflow:visible"/></clipPath><g class="st39"><path d="M92.38,313.64l-6.4-3.72c-0.02,0.01-0.03,0.02-0.05,0.03l6.4,3.72 C92.35,313.65,92.37,313.64,92.38,313.64z" class="st34"/><path d="M92.34,313.66l-6.4-3.72c-1.01,0.57-1.92,0.61-2.57,0.23l6.4,3.72 C90.42,314.28,91.33,314.23,92.34,313.66z" class="st34"/></g></g><g class="st2"><defs><path id="SVGID_23_" d="M109.61,276.27l-6.4-3.72c-1.68-0.96-2.62-1.5-4.31-2.45l6.4,3.72 C106.98,274.78,107.92,275.31,109.61,276.27z" class="st2"/></defs><use xlink:href="#SVGID_23_" style="overflow:visible;fill:#ffde38"/><clipPath id="SVGID_24_"><use xlink:href="#SVGID_23_" style="overflow:visible"/></clipPath><g class="st40"><path d="M109.61,276.27l-6.4-3.72c-1.68-0.96-2.62-1.5-4.31-2.45l6.4,3.72 C106.98,274.78,107.92,275.31,109.61,276.27z" class="st16"/></g></g><g><polygon points="85.77 290.03 79.37 286.31 79.45 311.86 85.84 315.58" class="st34"/></g><g><polygon points="105.3 273.82 98.9 270.1 83.65 278.9 90.05 282.62" class="st16"/></g><g class="st2"><defs><path id="SVGID_25_" d="M90.05,282.62l-6.4-3.72c-1.67,2.9-2.61,4.52-4.28,7.41l6.4,3.72 C87.44,287.14,88.38,285.51,90.05,282.62z" class="st2"/></defs><use xlink:href="#SVGID_25_" style="overflow:visible;fill:#ffde38"/><clipPath id="SVGID_26_"><use xlink:href="#SVGID_25_" style="overflow:visible"/></clipPath><g class="st41"><path d="M90.05,282.62l-6.4-3.72c-1.67,2.9-2.61,4.52-4.28,7.41l6.4,3.72 C87.44,287.14,88.38,285.51,90.05,282.62z" class="st34"/></g></g><g><path d="M105.3,273.82c1.68,0.96,2.62,1.5,4.31,2.45l0.07,25.55l-4.28,7.42l-15.25,8.8l-4.31-2.46l-0.07-25.55 c1.67-2.9,2.61-4.52,4.28-7.41L105.3,273.82z M92.38,313.64c2.03-1.17,3.68-4.02,3.67-6.36c-0.01-2.34-1.66-3.28-3.69-2.11 c-2.04,1.18-3.68,4.02-3.67,6.36C88.69,313.87,90.35,314.81,92.38,313.64z" class="st33"/></g></g></g><g><g class="st2"><g><polygon points="178.02 240.8 174 238.46 171.25 240.05 175.27 242.39" class="st16"/></g><g><polygon points="173.36 236.76 169.34 234.42 169.34 236.24 173.37 238.58" class="st34"/></g><g><polygon points="175.25 235.67 171.23 233.33 169.34 234.42 173.36 236.76" class="st16"/></g><g><polygon points="173.37 238.58 169.34 236.24 167.18 237.49 171.2 239.83" class="st16"/></g><g><polygon points="166.92 242.3 162.9 239.96 160.73 241.22 164.75 243.55" class="st16"/></g><g><polygon points="171.19 236.59 167.17 234.26 162.89 236.73 166.91 239.06" class="st16"/></g><g><polygon points="166.91 239.06 162.89 236.73 162.9 239.96 166.92 242.3" class="st34"/></g><g><polygon points="164.74 241.74 160.72 239.4 158.97 240.41 162.99 242.75" class="st16"/></g><g><polygon points="166.91 239.06 166.92 242.3 164.75 243.55 164.74 241.74 162.99 242.75 163.03 255.51 178.04 246.85 178.02 240.8 175.27 242.39 175.25 235.67 173.36 236.76 173.37 238.58 171.2 239.83 171.19 236.59" class="st33"/></g><g><polygon points="162.99 242.75 158.97 240.41 159.01 253.18 163.03 255.51" class="st34"/></g></g></g><g><g class="st2"><g><polygon points="153.84 248.26 157.6 246.08 157.56 258.47 153.81 260.65" class="st33"/></g><g><polygon points="150.53 246.34 154.28 244.16 157.6 246.08 153.84 248.26" class="st16"/></g><g><polygon points="153.84 248.26 153.81 260.65 150.49 258.73 150.53 246.34" class="st34"/></g></g></g></g><g><path d="M150.03,262.47c-0.21,0.2-0.65,0.42-0.78,0.03c-0.21-0.65,0.01-1.41-0.28-2.03 c-0.1-0.22-0.32-0.43-0.56-0.38c-0.28,0.06-0.38,0.41-0.41,0.7c-0.08,0.69-0.14,1.4-0.38,2.05c-0.18,0.49-0.45,0.94-0.69,1.4 c-0.29,0.56-0.53,1.18-0.57,1.81c-0.04,0.76-0.18,1.51-0.43,2.23c-0.15,0.43-0.34,0.88-0.24,1.33c0.1,0.47,0.5,0.81,0.89,1.08 c0.32,0.23,0.67,0.44,1.06,0.44c0.35-0.01,0.67-0.19,0.91-0.43c0.24-0.24,0.42-0.55,0.6-0.84c0.37-0.63,0.72-1.29,1.12-1.9 c0.4-0.6,0.89-1.13,1.33-1.7c0.68-0.87,1.39-2.03,1.07-3.17c-0.19-0.68-0.53-1.31-0.97-1.86c-0.39-0.49-0.78-1.01-1.45-1.08 c-0.17-0.02-0.37,0.02-0.44,0.17c-0.07,0.16,0.05,0.33,0.15,0.47C150.3,261.28,150.49,262,150.03,262.47z" class="st26"/><path d="M148.56,267.16c0.05,0.03,0.11,0.06,0.16,0.09c0.46,0.27,0.92,0.63,1.07,1.15 c0.15,0.51-0.04,1.02-0.25,1.48c-0.22,0.47-0.38,0.97-0.59,1.45c-0.46,1.03-0.93,2.05-1.4,3.07c-0.31,0.67-0.62,1.34-0.95,2 c-0.97,1.93-2.12,3.75-3.43,5.44c-0.51,0.65-1.33,1.75-2.12,2.07c-0.78,0.31-1.58-0.04-2.3-0.55c-1.28-0.9-2.26-2.29-2.09-3.86 c0.18-1.58,1.1-2.74,1.96-3.95c0.99-1.37,2.02-2.71,3.09-4.01c0.54-0.65,1.08-1.29,1.64-1.93c0.52-0.59,1.01-1.22,1.54-1.79 c0.28-0.3,0.56-0.59,0.85-0.89c0.17-0.18,0.37-0.4,0.6-0.5c0.23-0.1,0.46,0,0.69,0.07C147.56,266.66,148.07,266.88,148.56,267.16 z" class="st29"/></g></g><g><g><g class="st2"><g><polygon points="207.86 169.51 209.82 168.37 209.76 193.55 207.8 194.7" class="st42"/></g><g><polygon points="117.88 117.56 119.85 116.42 209.82 168.37 207.86 169.51" class="st42"/></g><g><polygon points="207.86 169.51 207.8 194.7 117.82 142.75 117.88 117.56" class="st43"/></g></g></g><path d="M131.57,138.33l-3.38-1.95c1.96,0.61,3.43-0.58,3.43-3.01c0-2.83-1.99-6.27-4.44-7.68 c-2.45-1.41-4.44-0.27-4.44,2.56c0,2.43,1.46,5.3,3.43,6.97l-3.38-1.95c-1.29-0.74-2.34-0.14-2.34,1.35v6.37l13.47,7.78v-6.37 C133.91,140.9,132.86,139.08,131.57,138.33z" class="st44"/></g><g><g><g class="st2"><g><polygon points="178.86 200.23 180.82 199.09 180.77 224.28 178.8 225.42" class="st42"/></g><g><polygon points="88.88 148.28 90.85 147.14 180.82 199.09 178.86 200.23" class="st42"/></g><g><polygon points="178.86 200.23 178.8 225.42 88.83 173.47 88.88 148.28" class="st43"/></g></g></g><g><path d="M94.61,161.93l3.71,1.56l0.13,2.98l-3.85-2.37V161.93z M96.56,165.53l2.43,2.14l-1.31,3.41l-1.79-1.68 L96.56,165.53z M99.84,161.62l1.63,4.83l-2.35-0.31l-1.07-4.87L99.84,161.62z M99.92,168.02l3.04,4.5l-1.12,1.08l-3.28-3.93 L99.92,168.02z M103.18,166.39l1.09,2.39l-2.7,1.43l-1.58-3.16L103.18,166.39z" class="st44"/><path d="M105.77,168.38l3.71,1.56l0.13,2.98l-3.85-2.38V168.38z M107.72,171.97l2.43,2.14l-1.31,3.41l-1.79-1.68 L107.72,171.97z M111.01,168.07l1.63,4.83l-2.35-0.31l-1.07-4.87L111.01,168.07z M111.09,174.47l3.04,4.5l-1.12,1.08l-3.29-3.93 L111.09,174.47z M114.35,172.83l1.09,2.39l-2.7,1.43l-1.58-3.16L114.35,172.83z" class="st44"/><path d="M116.94,174.82l3.71,1.56l0.13,2.98l-3.85-2.37V174.82z M118.89,178.42l2.43,2.14l-1.31,3.41l-1.79-1.68 L118.89,178.42z M122.17,174.52l1.63,4.83l-2.35-0.31l-1.07-4.87L122.17,174.52z M122.25,180.91l3.04,4.5l-1.12,1.08l-3.29-3.93 L122.25,180.91z M125.51,179.28l1.09,2.39l-2.7,1.43l-1.58-3.16L125.51,179.28z" class="st44"/><path d="M128.1,181.27l3.71,1.56l0.13,2.98l-3.85-2.37V181.27z M130.05,184.86l2.43,2.14l-1.31,3.41l-1.79-1.68 L130.05,184.86z M133.34,180.96l1.63,4.83l-2.35-0.31l-1.07-4.87L133.34,180.96z M133.42,187.36l3.04,4.5l-1.12,1.08l-3.29-3.93 L133.42,187.36z M136.67,185.73l1.09,2.39l-2.7,1.43l-1.58-3.16L136.67,185.73z" class="st44"/><path d="M139.27,187.72l3.71,1.56l0.13,2.98l-3.85-2.37V187.72z M141.21,191.31l2.43,2.14l-1.31,3.41l-1.79-1.68 L141.21,191.31z M144.5,187.41l1.63,4.83l-2.35-0.31l-1.07-4.87L144.5,187.41z M144.58,193.81l3.04,4.5l-1.12,1.08l-3.29-3.93 L144.58,193.81z M147.84,192.17l1.09,2.39l-2.7,1.43l-1.57-3.16L147.84,192.17z" class="st44"/><path d="M150.43,194.16l3.71,1.56l0.13,2.98l-3.85-2.37V194.16z M152.38,197.75l2.43,2.14l-1.31,3.41l-1.79-1.68 L152.38,197.75z M155.66,193.85l1.63,4.83l-2.35-0.31l-1.07-4.87L155.66,193.85z M155.74,200.25l3.04,4.5l-1.12,1.08l-3.29-3.93 L155.74,200.25z M159,198.62l1.09,2.39l-2.7,1.43l-1.57-3.16L159,198.62z" class="st44"/></g></g></g><text class="st45 st46 st47" transform="matrix(1.1311 0.6132 -0.4766 0.8791 277.9531 189.5359)">3301</text></svg>